<svg xmlns="http://www.w3.org/2000/svg" viewBox="0 0 96 96" width="96" height="96" fill="none">
  <!-- Outer Gold Geometric Accent Ring -->
  <circle cx="48" cy="48" r="44" stroke="#D5A33A" stroke-width="1.5" stroke-opacity="0.4" stroke-dasharray="3 3" />
  <circle cx="48" cy="48" r="40" fill="#FBEAE9" stroke="#D5A33A" stroke-width="1" stroke-opacity="0.2" />
  
  <!-- Silhouette Peci / Kopiah -->
  <g transform="translate(16, 20)">
    <!-- Base Cap Structure -->
    <path d="M12 28 C12 14, 24 10, 32 10 C40 10, 52 14, 52 28 L54 44 C54 46, 52 48, 50 48 L14 48 C12 48, 10 46, 10 44 Z" fill="#3C0008"/>
    <!-- Islamic Pattern / Texture Band on Cap -->
    <path d="M11 38 H53 V44 C53 45.5, 51.5 47, 50 47 L14 47 C12.5 47, 11 45.5, 11 44 Z" fill="#5A121A"/>
    <path d="M16 42 L20 38 L24 42 L28 38 L32 42 L36 38 L40 42 L44 38 L48 42" stroke="#D5A33A" stroke-width="1.5" stroke-linecap="round" stroke-linejoin="round"/>
    <!-- Top Emblem Star -->
    <path d="M32 16 L33.5 20.5 L38 22 L33.5 23.5 L32 28 L30.5 23.5 L26 22 L30.5 20.5 Z" fill="#D5A33A"/>
  </g>
</svg>
